<svg xmlns="http://www.w3.org/2000/svg" xmlns:xlink="http://www.w3.org/1999/xlink" viewBox="0 0 1533.91 832.43"><defs><style>.cls-1{fill:none;}.cls-2{clip-path:url(#clip-path);}.cls-3{fill:#212832;}.cls-4{fill:#a43f69;}.cls-5{fill:#ff7677;}.cls-6{fill:#fffdfd;}.cls-7{fill:url(#linear-gradient);}.cls-8{fill:url(#linear-gradient-2);}.cls-9{fill:url(#linear-gradient-3);}.cls-10{fill:url(#linear-gradient-4);}.cls-11{fill:url(#linear-gradient-5);}.cls-12{fill:url(#linear-gradient-6);}.cls-13{fill:url(#linear-gradient-7);}.cls-14{fill:url(#linear-gradient-8);}.cls-15{fill:url(#linear-gradient-9);}.cls-16{fill:url(#linear-gradient-10);}.cls-17{fill:url(#linear-gradient-11);}.cls-18{fill:url(#linear-gradient-12);}.cls-19{fill:url(#linear-gradient-13);}.cls-20{fill:url(#linear-gradient-14);}.cls-21{fill:#f7ebec;}.cls-22{fill:url(#linear-gradient-15);}.cls-23{fill:url(#linear-gradient-16);}.cls-24{fill:url(#linear-gradient-17);}.cls-25{fill:url(#linear-gradient-18);}.cls-26{fill:url(#linear-gradient-19);}.cls-27{fill:url(#linear-gradient-20);}.cls-28{fill:url(#linear-gradient-21);}</style><clipPath id="clip-path"><rect class="cls-1" x="102.26" y="37.47" width="1366" height="768"/></clipPath><linearGradient id="linear-gradient" x1="1232.38" y1="613.99" x2="1387.55" y2="613.99" gradientUnits="userSpaceOnUse"><stop offset="0" stop-color="#a43f69"/><stop offset="1" stop-color="#ff7677"/></linearGradient><linearGradient id="linear-gradient-2" x1="1237.84" y1="591.51" x2="1372.41" y2="591.51" xlink:href="#linear-gradient"/><linearGradient id="linear-gradient-3" x1="1232.36" y1="636.69" x2="1395.02" y2="636.69" xlink:href="#linear-gradient"/><linearGradient id="linear-gradient-4" x1="1236.97" y1="659.43" x2="1396.26" y2="659.43" xlink:href="#linear-gradient"/><linearGradient id="linear-gradient-5" x1="1269.92" y1="705.22" x2="1382.47" y2="705.22" xlink:href="#linear-gradient"/><linearGradient id="linear-gradient-6" x1="1248.65" y1="682.05" x2="1394.05" y2="682.05" xlink:href="#linear-gradient"/><linearGradient id="linear-gradient-7" x1="1256.05" y1="571.59" x2="1344.54" y2="571.59" xlink:href="#linear-gradient"/><linearGradient id="linear-gradient-8" x1="1305.37" y1="227.06" x2="1366.81" y2="227.06" xlink:href="#linear-gradient"/><linearGradient id="linear-gradient-9" x1="1307.53" y1="218.16" x2="1360.81" y2="218.16" xlink:href="#linear-gradient"/><linearGradient id="linear-gradient-10" x1="1305.36" y1="236.05" x2="1369.77" y2="236.05" xlink:href="#linear-gradient"/><linearGradient id="linear-gradient-11" x1="1307.19" y1="245.05" x2="1370.26" y2="245.05" xlink:href="#linear-gradient"/><linearGradient id="linear-gradient-12" x1="1320.23" y1="263.18" x2="1364.8" y2="263.18" xlink:href="#linear-gradient"/><linearGradient id="linear-gradient-13" x1="1311.81" y1="254" x2="1369.38" y2="254" xlink:href="#linear-gradient"/><linearGradient id="linear-gradient-14" x1="1314.74" y1="210.27" x2="1349.78" y2="210.27" xlink:href="#linear-gradient"/><linearGradient id="linear-gradient-15" x1="99.64" y1="741.44" x2="254.81" y2="741.44" gradientTransform="translate(491.11 44.55) rotate(39.97)" xlink:href="#linear-gradient"/><linearGradient id="linear-gradient-16" x1="105.1" y1="718.96" x2="239.67" y2="718.96" gradientTransform="translate(491.11 44.55) rotate(39.97)" xlink:href="#linear-gradient"/><linearGradient id="linear-gradient-17" x1="99.62" y1="764.15" x2="262.28" y2="764.15" gradientTransform="translate(491.11 44.55) rotate(39.97)" xlink:href="#linear-gradient"/><linearGradient id="linear-gradient-18" x1="104.23" y1="786.89" x2="263.52" y2="786.89" gradientTransform="translate(491.11 44.55) rotate(39.97)" xlink:href="#linear-gradient"/><linearGradient id="linear-gradient-19" x1="137.18" y1="832.67" x2="249.73" y2="832.67" gradientTransform="translate(491.11 44.55) rotate(39.97)" xlink:href="#linear-gradient"/><linearGradient id="linear-gradient-20" x1="115.91" y1="809.5" x2="261.31" y2="809.5" gradientTransform="translate(491.11 44.55) rotate(39.97)" xlink:href="#linear-gradient"/><linearGradient id="linear-gradient-21" x1="123.31" y1="699.05" x2="211.8" y2="699.05" gradientTransform="translate(491.11 44.55) rotate(39.97)" xlink:href="#linear-gradient"/></defs><title>Asset 1@2xd</title><g id="Layer_2" data-name="Layer 2"><g id="Layer_1-2" data-name="Layer 1"><g class="cls-2"><rect class="cls-3" x="103.76" y="37.97" width="1365" height="767"/><path d="M1468.26,38.47v766h-1364v-766h1364m1-1h-1366v768h1366v-768Z"/><rect class="cls-4" x="1179.15" y="40.47" width="358.11" height="40" rx="20" ry="20" transform="translate(16.25 278.5) rotate(-11.78)"/><rect class="cls-4" x="214.15" y="276.47" width="358.11" height="40" rx="20" ry="20" transform="translate(-52.24 86.5) rotate(-11.78)"/><rect class="cls-5" x="1063.15" y="94.47" width="358.11" height="40" rx="20" ry="20" transform="translate(2.79 255.96) rotate(-11.78)"/><rect class="cls-5" x="591.15" y="32.47" width="358.11" height="40" rx="20" ry="20" transform="translate(5.51 158.31) rotate(-11.78)"/><rect class="cls-5" x="348.82" y="240.79" width="262.77" height="29.35" rx="14.68" ry="14.68" transform="translate(-42.04 103.4) rotate(-11.78)"/><rect class="cls-5" x="2.82" y="140.79" width="262.77" height="29.35" rx="14.68" ry="14.68" transform="translate(-28.91 30.67) rotate(-11.78)"/><rect class="cls-6" x="327.63" y="305.59" width="234.02" height="8.39" rx="4.19" ry="4.19" transform="translate(-53.87 97.28) rotate(-11.78)"/><rect class="cls-6" x="-2.37" y="177.59" width="234.02" height="8.39" rx="4.19" ry="4.19" transform="translate(-34.69 27.23) rotate(-11.78)"/><rect class="cls-6" x="12.82" y="406.79" width="262.77" height="29.35" rx="14.68" ry="14.68" transform="translate(-82.99 38.31) rotate(-11.78)"/><rect class="cls-4" x="729.53" y="245.22" width="201.34" height="22.49" rx="11.24" ry="11.24" transform="translate(-34.87 174.86) rotate(-11.78)"/><rect class="cls-4" x="443.53" y="427.22" width="201.34" height="22.49" rx="11.24" ry="11.24" transform="translate(-78.04 120.31) rotate(-11.78)"/><rect class="cls-4" x="1003.53" y="205.22" width="201.34" height="22.49" rx="11.24" ry="11.24" transform="matrix(0.98, -0.2, 0.2, 0.98, -20.94, 229.94)"/><circle class="cls-4" cx="882.26" cy="170.47" r="33"/><circle class="cls-4" cx="1010.26" cy="326.47" r="33"/><circle class="cls-5" cx="1155.76" cy="368.97" r="13.5"/><circle class="cls-5" cx="873.76" cy="476.97" r="13.5"/><circle class="cls-5" cx="657.76" cy="344.97" r="13.5"/><circle class="cls-6" cx="414.76" cy="170.97" r="13.5"/><circle class="cls-6" cx="1217.26" cy="274.47" r="24"/><path class="cls-7" d="M1232.38,637.07l155.18-32.36a82,82,0,0,0-8.77-13.81l-143.93,30A81.9,81.9,0,0,0,1232.38,637.07Z"/><path class="cls-8" d="M1237.84,611.72l134.57-28.06a82.35,82.35,0,0,0-15.71-12.37l-109.36,22.8A81.77,81.77,0,0,0,1237.84,611.72Z"/><path class="cls-9" d="M1391,612.57l-158.64,33.08a81.9,81.9,0,0,0,2.21,15.18L1395,627.37A81.4,81.4,0,0,0,1391,612.57Z"/><path class="cls-10" d="M1396.26,641.47c0-1.93-.09-3.84-.22-5.74L1237,668.89a81.58,81.58,0,0,0,6.67,14.25l152-31.69A82.7,82.7,0,0,0,1396.26,641.47Z"/><path class="cls-11" d="M1269.92,710.44A82,82,0,0,0,1382.47,687Z"/><path class="cls-12" d="M1394,660.35l-145.4,30.32a82.46,82.46,0,0,0,12.29,13.08l127.12-26.5A81.42,81.42,0,0,0,1394,660.35Z"/><path class="cls-13" d="M1344.54,565.27a82,82,0,0,0-88.49,18.45Z"/><path class="cls-14" d="M1305.37,236.2l61.44-12.81a32.48,32.48,0,0,0-3.47-5.47l-57,11.88A32.43,32.43,0,0,0,1305.37,236.2Z"/><path class="cls-15" d="M1307.53,226.16l53.28-11.11a32.61,32.61,0,0,0-6.22-4.9l-43.3,9A32.38,32.38,0,0,0,1307.53,226.16Z"/><path class="cls-16" d="M1368.17,226.49l-62.81,13.1a32.43,32.43,0,0,0,.88,6l63.53-13.25A32.23,32.23,0,0,0,1368.17,226.49Z"/><path class="cls-17" d="M1370.26,237.94c0-.77,0-1.52-.09-2.27l-63,13.13a32.3,32.3,0,0,0,2.64,5.64L1370,241.89A32.75,32.75,0,0,0,1370.26,237.94Z"/><path class="cls-18" d="M1320.23,265.25A32.46,32.46,0,0,0,1364.8,256Z"/><path class="cls-19" d="M1369.38,245.41l-57.57,12a32.65,32.65,0,0,0,4.87,5.18L1367,252.1A32.24,32.24,0,0,0,1369.38,245.41Z"/><path class="cls-20" d="M1349.78,207.77a32.46,32.46,0,0,0-35,7.31Z"/><path class="cls-21" d="M645.37,179.2l61.44-12.81a32.48,32.48,0,0,0-3.47-5.47l-57,11.88A32.43,32.43,0,0,0,645.37,179.2Z"/><path class="cls-21" d="M647.53,169.16l53.28-11.11a32.61,32.61,0,0,0-6.22-4.9l-43.3,9A32.38,32.38,0,0,0,647.53,169.16Z"/><path class="cls-21" d="M708.17,169.49l-62.81,13.1a32.43,32.43,0,0,0,.88,6l63.53-13.25A32.23,32.23,0,0,0,708.17,169.49Z"/><path class="cls-21" d="M710.26,180.94c0-.77,0-1.52-.09-2.27l-63,13.13a32.3,32.3,0,0,0,2.64,5.64L710,184.89A32.75,32.75,0,0,0,710.26,180.94Z"/><path class="cls-21" d="M660.23,208.25A32.46,32.46,0,0,0,704.8,199Z"/><path class="cls-21" d="M709.38,188.41l-57.57,12a32.65,32.65,0,0,0,4.87,5.18L707,195.1A32.24,32.24,0,0,0,709.38,188.41Z"/><path class="cls-21" d="M689.78,150.77a32.46,32.46,0,0,0-35,7.31Z"/><path class="cls-22" d="M76.34,694.47l139.71,74.89a82,82,0,0,0,2.15-16.22L88.62,683.68A81.9,81.9,0,0,0,76.34,694.47Z"/><path class="cls-23" d="M96.81,678.55,218,743.49a82.35,82.35,0,0,0-4.09-19.57l-98.46-52.78A81.77,81.77,0,0,0,96.81,678.55Z"/><path class="cls-24" d="M213.65,777.58,70.82,701a81.9,81.9,0,0,0-8.06,13.06l144.46,77.43A81.4,81.4,0,0,0,213.65,777.58Z"/><path class="cls-25" d="M199.11,803.11c1.24-1.48,2.4-3,3.52-4.55L59.42,721.8a81.58,81.58,0,0,0-4,15.21l136.84,73.35A82.7,82.7,0,0,0,199.11,803.11Z"/><path class="cls-26" d="M58,774.81a82,82,0,0,0,101.33,54.32Z"/><path class="cls-27" d="M185.29,816.16,54.39,746a82.46,82.46,0,0,0,1,17.92l114.45,61.35A81.42,81.42,0,0,0,185.29,816.16Z"/><path class="cls-28" d="M208.43,711.49a82,82,0,0,0-79.67-42.7Z"/></g></g></g></svg>